<?xml version="1.0" standalone="no"?><!DOCTYPE svg PUBLIC "-//W3C//DTD SVG 1.1//EN" "http://www.w3.org/Graphics/SVG/1.1/DTD/svg11.dtd"><svg t="1513846536948" class="icon" style="" viewBox="0 0 1024 1024" version="1.1" xmlns="http://www.w3.org/2000/svg" p-id="1789" xmlns:xlink="http://www.w3.org/1999/xlink" width="200" height="200"><defs><style type="text/css"></style></defs><path d="M512 0C229.376 0 0 228.864 0 512c0 282.624 228.864 512 512 512 282.624 0 512-229.376 512-512S794.624 0 512 0z m314.368 642.048l-194.56 191.488c-14.848 14.848-38.912 14.336-53.76 0-14.848-14.336-14.848-38.912 0-53.76l130.048-128.512H225.28c-20.992 0-37.888-16.896-37.888-37.376 0-20.992 16.896-37.376 37.888-37.376h570.88c3.072 0 6.144 1.024 9.216 2.56 7.68 1.024 15.872 4.096 21.504 10.24 14.848 14.336 14.848 38.4-0.512 52.736zM801.28 460.8H227.328c-3.584 0-6.656-0.512-9.728-1.024-7.68-1.024-15.872-3.584-21.504-9.728-14.848-14.848-14.848-38.4 0-53.76l195.584-193.536c14.848-14.848 38.912-14.848 54.272 0s14.848 38.912 0 53.76L314.88 385.536h485.376c20.992 0 37.888 16.896 37.888 37.888 1.024 20.48-15.872 37.376-36.864 37.376z" fill="#FE8010" p-id="1790"></path></svg>