<?xml version="1.0" standalone="no"?><!DOCTYPE svg PUBLIC "-//W3C//DTD SVG 1.1//EN" "http://www.w3.org/Graphics/SVG/1.1/DTD/svg11.dtd"><svg t="1512979629739" class="icon" style="" viewBox="0 0 1024 1024" version="1.1" xmlns="http://www.w3.org/2000/svg" p-id="2373" xmlns:xlink="http://www.w3.org/1999/xlink" width="200" height="200"><defs><style type="text/css"></style></defs><path d="M147.66 319.9a227.52 227.52 0 0 1 65-159.76 36 36 0 1 0-51.53-50.28 300.54 300.54 0 0 0 3.26 423.37 36 36 0 1 0 50.76-51.07 227.21 227.21 0 0 1-67.49-162.26zM684.59 183.58a36 36 0 0 0-1 50.9 123.36 123.36 0 0 1-2.22 173.09A36 36 0 1 0 732 458.74a195.36 195.36 0 0 0 3.5-274.12 36 36 0 0 0-50.91-1.04z" p-id="2374"></path><path d="M864.42 109.86a36 36 0 1 0-51.53 50.28 228.77 228.77 0 0 1-2.48 322 36 36 0 1 0 50.76 51.07 300.77 300.77 0 0 0 3.26-423.37zM344.5 458.48a36 36 0 0 0-0.26-50.91A123.36 123.36 0 0 1 342 234.48a36 36 0 1 0-51.94-49.87 195.36 195.36 0 0 0 3.5 274.12 36 36 0 0 0 50.91-0.26zM565.39 403.84a96 96 0 1 0-107.5-0.58L296.23 847.42a36.11 36.11 0 0 0 21.52 46.14A36.11 36.11 0 0 0 363.89 872l34.23-94H625l35 96.3a32.63 32.63 0 0 0 41.7 19.45l6.51-2.37a32.63 32.63 0 0 0 19.45-41.7z m-53.85 62.55L555.07 586H468zM421.41 714l23.29-64h133.66l23.29 64z" p-id="2375"></path></svg>
