<?xml version="1.0" standalone="no"?><!DOCTYPE svg PUBLIC "-//W3C//DTD SVG 1.1//EN" "http://www.w3.org/Graphics/SVG/1.1/DTD/svg11.dtd"><svg class="icon" width="200px" height="200.00px" viewBox="0 0 1024 1024" version="1.1" xmlns="http://www.w3.org/2000/svg"><path d="M849.5 649.1H100.7c-0.6 0-1.1-0.5-1.1-1.1V375.9c0-0.6 0.5-1.1 1.1-1.1h748.8c0.6 0 1.1 0.5 1.1 1.1v272.2c-0.1 0.6-0.5 1-1.1 1z" fill="#DCDDDD" /><path d="M550.9 649.1H100.7c-0.6 0-1.1-0.5-1.1-1.1V375.9c0-0.6 0.5-1.1 1.1-1.1h450.2v274.3z" /><path d="M455.4 457.1h-17.6c-4.8-26-20.3-39-46.5-39-17.7 0-31.5 8.8-41.3 26.3-9.6 16.4-14.5 37.7-14.5 63.9v10.1h1.2c4.6-12.1 12.1-21.7 22.5-28.6 9.8-6.9 21.4-10.4 34.7-10.4 19.6 0 35.3 6.3 47.1 18.8 11.9 12.5 17.9 28.8 17.9 48.8 0 20.2-6.4 37-19.1 50.3-12.7 13.3-28.9 19.9-48.5 19.9-25 0-43.8-9.5-56.3-28.6-11.2-17.1-16.8-41.6-16.8-73.4 0-32.5 6.2-59 18.5-79.5 13.3-22 31.6-32.9 54.9-32.9 36.8 0 58.1 18.1 63.8 54.3z m-100.8 52.6c-10 9.8-15 22.3-15 37.6 0 15.2 4.4 27.9 13.3 38.1 9.6 11 22.3 16.5 37.9 16.5 15.2 0 27.5-5.2 36.7-15.6 9.3-10.4 13.9-23.5 13.9-39.3 0-15.8-4.5-28.5-13.6-38.1-9.1-9.6-21.3-14.5-36.7-14.5-14.7 0-26.9 5.1-36.5 15.3zM617.2 436.9c10 18.5 15 42.9 15 73.1 0 29.8-5 54.2-15 73.1-12.3 22.7-30.8 34.1-55.5 34.1-24.6 0-43.1-11.4-55.5-34.1-10-18.3-15-42.7-15-73.1 0-30.6 5-55 15-73.1 12.1-22.7 30.6-34.1 55.5-34.1s43.4 11.3 55.5 34.1zM518.7 449c-6.4 15-9.5 35.4-9.5 61 0 25.2 3.2 45.6 9.5 61 8.7 20.4 23 30.6 43 30.6 19.7 0 34-10.2 43.1-30.6 6.5-15.8 9.8-36.1 9.8-61 0-25.2-3.3-45.6-9.8-61-8.9-20.4-23.2-30.6-43.1-30.6-20 0-34.3 10.2-43 30.6z" fill="#FFFFFF" /><path d="M832 338.3H118.9c-14.5 0-28.5 5.8-38.8 16.1C69.8 364.6 64 378.6 64 393.1v237.7c0 30.3 24.6 54.9 54.9 54.9H832c30.3 0 54.8-24.6 54.8-54.9V393.1c0.1-30.3-24.5-54.8-54.8-54.8z m36.6 292.6c0 20.2-16.4 36.6-36.6 36.6H118.9c-9.7 0-19-3.9-25.9-10.7-6.9-6.9-10.7-16.2-10.7-25.9V393.1c0-20.2 16.4-36.6 36.6-36.6H832c20.2 0 36.6 16.4 36.6 36.6v237.8z m0 0M905.2 448c30.3 0 54.8 24.6 54.8 54.9v18.3c0 30.3-24.6 54.9-54.8 54.9V448z" fill="#B7B7B7" /></svg>
