<?xml version="1.0" standalone="no"?><!DOCTYPE svg PUBLIC "-//W3C//DTD SVG 1.1//EN" "http://www.w3.org/Graphics/SVG/1.1/DTD/svg11.dtd"><svg class="icon" width="200px" height="200.00px" viewBox="0 0 1024 1024" version="1.1" xmlns="http://www.w3.org/2000/svg"><path d="M849.8 649.1H101.1c-0.6 0-1.1-0.5-1.1-1.1V375.9c0-0.6 0.5-1.1 1.1-1.1h748.8c0.6 0 1.1 0.5 1.1 1.1v272.2c-0.1 0.6-0.6 1-1.2 1z" fill="#DCDDDD" /><path d="M323.2 649.1H101.1c-0.6 0-1.1-0.5-1.1-1.1V375.9c0-0.6 0.5-1.1 1.1-1.1h222.2v274.3z" fill="#E2C727" /><path d="M437.3 417.8c11.6 10 17.3 23.5 17.3 40.4 0 23.7-11.2 39.3-33.5 46.8 11.9 3.7 21.2 9.7 27.7 18.2 6.7 8.5 10.1 18.7 10.1 30.6 0 18.5-6.5 33.7-19.4 45.6-13.3 11.8-30 17.6-50.3 17.6-18.3 0-33.6-4.8-45.9-14.5-14.8-11.4-23.1-28.8-24.8-52.3h17.9c0.8 17.5 6.9 30.9 18.5 40.2 9.3 7.5 20.6 11.3 34.1 11.3 15.6 0 28.4-4.5 38.4-13.6 9.3-9 13.9-20.3 13.9-33.8 0-12.7-4.4-22.9-13.3-30.6-8.5-7.3-20.1-11-35-11h-18.2v-14.5h16.5c14.4 0 25.8-3.4 34.1-10.1 7.7-7.1 11.6-16.8 11.6-29.2 0-12.1-4-22-11.8-29.5-8.3-7.5-19.8-11.3-34.4-11.3-14.6 0-26.1 4.1-34.4 12.4-8.7 8.1-13.9 19.6-15.6 34.4h-17.6c1.7-19.3 8.8-34.6 21.4-45.9 11.9-11 27.3-16.5 46.2-16.5 19.2 0.3 34.7 5.3 46.5 15.3zM617.6 436.9c10 18.5 15 42.9 15 73.1 0 29.8-5 54.2-15 73.1-12.3 22.7-30.8 34.1-55.5 34.1-24.6 0-43.1-11.4-55.5-34.1-10-18.3-15-42.7-15-73.1 0-30.6 5-55 15-73.1 12.1-22.7 30.6-34.1 55.5-34.1s43.4 11.3 55.5 34.1zM519.1 449c-6.4 15-9.5 35.4-9.5 61 0 25.2 3.2 45.6 9.5 61 8.7 20.4 23 30.6 43 30.6 19.7 0 34-10.2 43.1-30.6 6.5-15.8 9.8-36.1 9.8-61 0-25.2-3.3-45.6-9.8-61-8.9-20.4-23.2-30.6-43.1-30.6-20 0-34.4 10.2-43 30.6z" fill="#FFFFFF" /><path d="M832 338.3H118.9c-14.5 0-28.5 5.8-38.8 16.1C69.8 364.6 64 378.6 64 393.1v237.7c0 30.3 24.6 54.9 54.9 54.9H832c30.3 0 54.8-24.6 54.8-54.9V393.1c0.1-30.3-24.5-54.8-54.8-54.8z m36.6 292.6c0 20.2-16.4 36.6-36.6 36.6H118.9c-9.7 0-19-3.9-25.9-10.7-6.9-6.9-10.7-16.2-10.7-25.9V393.1c0-20.2 16.4-36.6 36.6-36.6H832c20.2 0 36.6 16.4 36.6 36.6v237.8z m0 0M905.2 448c30.3 0 54.8 24.6 54.8 54.9v18.3c0 30.3-24.6 54.9-54.8 54.9V448z" fill="#B7B7B7" /></svg>