<?xml version="1.0" standalone="no"?><!DOCTYPE svg PUBLIC "-//W3C//DTD SVG 1.1//EN" "http://www.w3.org/Graphics/SVG/1.1/DTD/svg11.dtd"><svg t="1514192463125" class="icon" style="" viewBox="0 0 1024 1024" version="1.1" xmlns="http://www.w3.org/2000/svg" p-id="6414" xmlns:xlink="http://www.w3.org/1999/xlink" width="200" height="200"><defs><style type="text/css"></style></defs><path d="M851.786 419.5565h51.1875v181.2375h-51.1875c0 21.645 0.081 42.03-0.027 62.4195-0.072 16.524-2.3535 32.5395-11.34 46.971-13.968 22.41-33.8625 35.343-60.3225 37.6785-4.8375 0.432-9.7245 0.4815-14.5935 0.4815-225.495 0.018-333.09-0.0945-558.5805 0.1575-28.2195 0.045-51.8445-8.3115-69.5475-30.9015-11.907-15.1875-16.182-32.8725-16.2045-51.705-0.0765-102.6585-0.3285-205.3035 0.0945-307.9575 0.2115-50.0985 32.787-82.3095 82.593-82.3365 227.565-0.144 337.248-0.1125 564.8445-0.018 40.905 0.018 69.741 21.024 79.911 58.3875 2.3445 8.586 2.8215 17.838 3.042 26.811 0.4365 19.071 0.1305 38.169 0.1305 58.7745zM545.912 327.41c-113.0715 0-226.152-0.0135-339.2145 0.0135-24.03 0-33.669 9.513-33.687 33.1605-0.027 100.8945-0.027 201.798 0 302.688 0.018 23.7105 9.6435 33.219 33.6375 33.219 225.801 0.0225 333.693 0.0225 559.512 0 24.5025 0 33.6555-9.333 33.6555-34.2045 0.009-100.215 0.009-200.4165 0-300.618 0-25.2135-9.1395-34.263-34.6455-34.263l-219.258 0.0045z" p-id="6415"></path></svg>