<?xml version="1.0" standalone="no"?><!DOCTYPE svg PUBLIC "-//W3C//DTD SVG 1.1//EN" "http://www.w3.org/Graphics/SVG/1.1/DTD/svg11.dtd"><svg class="icon" width="200px" height="200.00px" viewBox="0 0 1024 1024" version="1.1" xmlns="http://www.w3.org/2000/svg"><path d="M849.5 649.1H100.7c-0.6 0-1.1-0.5-1.1-1.1V375.9c0-0.6 0.5-1.1 1.1-1.1h748.8c0.6 0 1.1 0.5 1.1 1.1v272.2c-0.1 0.6-0.5 1-1.1 1z" fill="#DCDDDD" /><path d="M701.2 649.1H100.7c-0.6 0-1.1-0.5-1.1-1.1V375.9c0-0.6 0.5-1.1 1.1-1.1h600.4v274.3z" /><path d="M437.8 419.2c10.8 9.8 16.2 22.2 16.2 37 0 10.8-2.8 20.3-8.4 28.6-6 8.3-14.4 14.2-25.4 17.6v1.2c11.2 2.3 20.8 8.4 28.9 18.2 8.1 9.8 12.1 21.5 12.1 35 0 17.7-6.2 32.2-18.5 43.3-12.9 11.4-31 17.1-54.3 17.1-23.3 0-41.4-5.7-54.3-17.1-12.3-11-18.5-25.4-18.5-43.3 0-13.5 4-25.1 12.1-35 7.7-9.8 17.4-15.9 29.2-18.2v-1.2c-11.2-3.5-19.7-9.3-25.7-17.6-5.6-7.9-8.4-17.4-8.4-28.6 0-15 5.4-27.3 16.2-37 11.6-11 28-16.5 49.4-16.5 21.2 0.1 37.7 5.5 49.4 16.5z m-91 105.2c-9.2 8.1-13.9 18.9-13.9 32.4 0 13.7 4.5 24.5 13.6 32.4 9.8 8.9 23.8 13.3 41.9 13.3 18.1 0 32.2-4.4 42.2-13.3 8.9-8.3 13.3-19.1 13.3-32.4 0-13.5-4.6-24.3-13.9-32.4-9.6-9-23.5-13.6-41.6-13.6s-32 4.5-41.6 13.6z m4.3-94.5c-7.5 6.9-11.3 15.9-11.3 26.9 0 11.4 3.5 20.5 10.4 27.4 8.5 8.1 21.2 12.1 38.1 12.1 16.8 0 29.5-4 38.1-12.1 6.9-6.9 10.4-16.1 10.4-27.4 0-11-3.8-19.9-11.3-26.9-8.9-8.1-21.3-12.1-37.3-12.1-16 0-28.4 4-37.1 12.1zM617.2 436.8c10 18.5 15 42.9 15 73.1 0 29.8-5 54.2-15 73.1-12.3 22.7-30.8 34.1-55.5 34.1-24.6 0-43.1-11.4-55.5-34.1-10-18.3-15-42.7-15-73.1 0-30.6 5-55 15-73.1 12.1-22.7 30.6-34.1 55.5-34.1 24.9 0.1 43.4 11.4 55.5 34.1zM518.7 449c-6.4 15-9.5 35.4-9.5 61 0 25.2 3.2 45.6 9.5 61 8.7 20.4 23 30.6 43 30.6 19.7 0 34-10.2 43.1-30.6 6.5-15.8 9.8-36.1 9.8-61 0-25.2-3.3-45.6-9.8-61-8.9-20.4-23.2-30.6-43.1-30.6-20 0-34.3 10.2-43 30.6z" fill="#FFFFFF" /><path d="M832 338.3H118.9c-14.5 0-28.5 5.8-38.8 16.1C69.8 364.6 64 378.6 64 393.1v237.7c0 30.3 24.6 54.9 54.9 54.9H832c30.3 0 54.8-24.6 54.8-54.9V393.1c0.1-30.3-24.5-54.8-54.8-54.8z m36.6 292.6c0 20.2-16.4 36.6-36.6 36.6H118.9c-9.7 0-19-3.9-25.9-10.7-6.9-6.9-10.7-16.2-10.7-25.9V393.1c0-20.2 16.4-36.6 36.6-36.6H832c20.2 0 36.6 16.4 36.6 36.6v237.8z m0 0M905.2 448c30.3 0 54.8 24.6 54.8 54.9v18.3c0 30.3-24.6 54.9-54.8 54.9V448z" fill="#B7B7B7" /></svg>
