<?xml version="1.0" standalone="no"?><!DOCTYPE svg PUBLIC "-//W3C//DTD SVG 1.1//EN" "http://www.w3.org/Graphics/SVG/1.1/DTD/svg11.dtd"><svg class="icon" width="200px" height="200.00px" viewBox="0 0 1024 1024" version="1.1" xmlns="http://www.w3.org/2000/svg"><path d="M849.5 649.1H100.7c-0.6 0-1.1-0.5-1.1-1.1V375.9c0-0.6 0.5-1.1 1.1-1.1h748.8c0.6 0 1.1 0.5 1.1 1.1v272.2c-0.1 0.6-0.5 1-1.1 1z" fill="#DCDDDD" /><path d="M475.7 649.1h-375c-0.6 0-1.1-0.5-1.1-1.1V375.9c0-0.6 0.5-1.1 1.1-1.1h375v274.3z" /><path d="M334.1 406.8h116.7V423h-102l-7.2 76h0.9c6.2-7.3 13.8-12.8 22.8-16.5 8.1-3.7 17.1-5.5 26.9-5.5 19.6 0 35.5 6.1 47.7 18.2 12.5 12.9 18.8 30.3 18.8 52.3 0 20.2-7 37.1-21.1 50.6-13.5 12.7-30.3 19.1-50.6 19.1-17.7 0-32.9-4.9-45.4-14.7-14-10.6-21.9-25.2-23.4-43.9h17.6c1.5 14.1 7.3 24.9 17.3 32.6 9.3 7.1 20.5 10.7 33.8 10.7 15.6 0 28.5-5.1 38.7-15.3 10.2-10.6 15.3-23.6 15.3-39 0-17.5-4.8-31.3-14.4-41.3-9.3-9.4-21.9-14.2-37.9-14.2-10.4 0-19.8 2.3-28.3 6.9-8.7 4.8-15.3 11.7-19.9 20.5h-16.8l10.5-112.7zM617.2 436.9c10 18.5 15 42.9 15 73.1 0 29.8-5 54.2-15 73.1-12.3 22.7-30.8 34.1-55.5 34.1-24.6 0-43.1-11.4-55.5-34.1-10-18.3-15-42.7-15-73.1 0-30.6 5-55 15-73.1 12.1-22.7 30.6-34.1 55.5-34.1s43.4 11.3 55.5 34.1zM518.7 449c-6.4 15-9.5 35.4-9.5 61 0 25.2 3.2 45.6 9.5 61 8.7 20.4 23 30.6 43 30.6 19.7 0 34-10.2 43.1-30.6 6.5-15.8 9.8-36.1 9.8-61 0-25.2-3.3-45.6-9.8-61-8.9-20.4-23.2-30.6-43.1-30.6-20 0-34.3 10.2-43 30.6z" fill="#FFFFFF" /><path d="M832 338.3H118.9c-14.5 0-28.5 5.8-38.8 16.1C69.8 364.6 64 378.6 64 393.1v237.7c0 30.3 24.6 54.9 54.9 54.9H832c30.3 0 54.8-24.6 54.8-54.9V393.1c0.1-30.3-24.5-54.8-54.8-54.8z m36.6 292.6c0 20.2-16.4 36.6-36.6 36.6H118.9c-9.7 0-19-3.9-25.9-10.7-6.9-6.9-10.7-16.2-10.7-25.9V393.1c0-20.2 16.4-36.6 36.6-36.6H832c20.2 0 36.6 16.4 36.6 36.6v237.8z m0 0M905.2 448c30.3 0 54.8 24.6 54.8 54.9v18.3c0 30.3-24.6 54.9-54.8 54.9V448z" fill="#B7B7B7" /></svg>
