<?xml version="1.0" standalone="no"?><!DOCTYPE svg PUBLIC "-//W3C//DTD SVG 1.1//EN" "http://www.w3.org/Graphics/SVG/1.1/DTD/svg11.dtd"><svg class="icon" width="200px" height="200.00px" viewBox="0 0 1024 1024" version="1.1" xmlns="http://www.w3.org/2000/svg"><path d="M849.8 649.1H101.1c-0.6 0-1.1-0.5-1.1-1.1V375.9c0-0.6 0.5-1.1 1.1-1.1h748.8c0.6 0 1.1 0.5 1.1 1.1v272.2c-0.1 0.6-0.6 1-1.2 1z" fill="#DCDDDD" /><path d="M175.8 649.1h-74.2c-0.6 0-1.1-0.5-1.1-1.1V375.9c0-0.6 0.5-1.1 1.1-1.1h74.2v274.3z" fill="#E02843" /><path d="M832 338.3H118.9c-14.5 0-28.5 5.8-38.8 16.1C69.8 364.6 64 378.6 64 393.1v237.7c0 30.3 24.6 54.9 54.9 54.9H832c30.3 0 54.8-24.6 54.8-54.9V393.1c0.1-30.3-24.5-54.8-54.8-54.8z m36.6 292.6c0 20.2-16.4 36.6-36.6 36.6H118.9c-9.7 0-19-3.9-25.9-10.7-6.9-6.9-10.7-16.2-10.7-25.9V393.1c0-20.2 16.4-36.6 36.6-36.6H832c20.2 0 36.6 16.4 36.6 36.6v237.8z m0 0M905.2 448c30.3 0 54.8 24.6 54.8 54.9v18.3c0 30.3-24.6 54.9-54.8 54.9V448z" fill="#B7B7B7" /><path d="M418 406.8v206.3h-17.6V428.8c-13.3 14.4-29.8 24.6-49.4 30.3v-17.9c9.8-2.9 19.3-7.2 28.6-13 9-6 17.1-13.1 24.3-21.4H418zM635.2 436.9c10 18.5 15 42.9 15 73.1 0 29.8-5 54.2-15 73.1-12.3 22.7-30.8 34.1-55.5 34.1-24.6 0-43.1-11.4-55.5-34.1-10-18.3-15-42.7-15-73.1 0-30.6 5-55 15-73.1 12.1-22.7 30.6-34.1 55.5-34.1s43.4 11.3 55.5 34.1zM536.7 449c-6.4 15-9.5 35.4-9.5 61 0 25.2 3.2 45.6 9.5 61 8.7 20.4 23 30.6 43 30.6 19.7 0 34-10.2 43.1-30.6 6.5-15.8 9.8-36.1 9.8-61 0-25.2-3.3-45.6-9.8-61-8.9-20.4-23.2-30.6-43.1-30.6-20 0-34.3 10.2-43 30.6z" fill="#FFFFFF" /></svg>