<?xml version="1.0" standalone="no"?><!DOCTYPE svg PUBLIC "-//W3C//DTD SVG 1.1//EN" "http://www.w3.org/Graphics/SVG/1.1/DTD/svg11.dtd"><svg t="1512644409014" class="icon" style="" viewBox="0 0 1024 1024" version="1.1" xmlns="http://www.w3.org/2000/svg" p-id="21753" xmlns:xlink="http://www.w3.org/1999/xlink" width="200" height="200"><defs><style type="text/css"></style></defs><path d="M3.9296 225.6768c0 37.248-3.52 198.2976 0 255.3856 14.8992 26.4192 43.0208 48.9856 80.192 68.0064 7.0912 210.304 196.032 378.9312 428.672 378.9312 233.408 0 422.8992-169.7536 428.7872-381.0432 36.8128-18.6496 64.832-40.5504 80.064-65.8944V225.6768C856 51.4432 164.2624 54.1056 3.9296 225.6768z m667.0848 558.656h-9.728c-21.9136 37.1072-80.1408 63.8464-149.2864 63.8464s-127.3856-26.7392-149.2864-63.8464h-9.7408V576.896v-0.0512c0-87.8208 71.1936-158.9888 159.0272-158.9888 87.8208 0 159.0016 71.1808 159.0016 158.9632v207.5136z m270.592-392.576c-155.8784-93.7728-706.2784-95.0272-857.4336 0-2.9824-29.3504-1.2672-114.9952-1.2672-134.144 192.064-110.8352 712.512-102.72 858.688 2.8416l0.0128 131.3024z" p-id="21754"></path><path d="M512 629.2096m-97.1392 0a97.1392 97.1392 0 1 0 194.2784 0 97.1392 97.1392 0 1 0-194.2784 0Z" p-id="21755"></path></svg>