<?xml version="1.0" standalone="no"?><!DOCTYPE svg PUBLIC "-//W3C//DTD SVG 1.1//EN" "http://www.w3.org/Graphics/SVG/1.1/DTD/svg11.dtd"><svg t="1525863954015" class="icon" style="" viewBox="0 0 1075 1024" version="1.1" xmlns="http://www.w3.org/2000/svg" p-id="4563" xmlns:xlink="http://www.w3.org/1999/xlink" width="209.9609375" height="200"><defs><style type="text/css"></style></defs><path d="M792.832 1024v-85.248h170.496v-170.496h85.248V1024h-255.744z m170.496-937.728h-170.496V1.024h255.744v255.744h-85.248v-170.496z m-204.8 468.8384h0.256l-0.9216 1.1776a257.024 257.024 0 0 1-35.328 47.0016l-188.2624 250.2144-187.0336-254.976a256.256 256.256 0 0 1-30.5664-41.5744l-1.3312-1.8432h0.3072a255.744 255.744 0 1 1 442.88 0zM537.088 282.4704a144.7936 144.7936 0 1 0 0 289.536 144.7936 144.7936 0 0 0 0-289.536zM25.6 938.752v-170.496h85.248v170.496h170.496V1024H25.6v-85.248z m85.248-681.984H25.6V1.024h255.744v85.248h-170.496v170.496z" fill="#ffffff" p-id="4564"></path></svg>