<?xml version="1.0" standalone="no"?><!DOCTYPE svg PUBLIC "-//W3C//DTD SVG 1.1//EN" "http://www.w3.org/Graphics/SVG/1.1/DTD/svg11.dtd"><svg t="1521789909568" class="icon" style="" viewBox="0 0 1024 1024" version="1.1" xmlns="http://www.w3.org/2000/svg" p-id="3166" xmlns:xlink="http://www.w3.org/1999/xlink" width="200" height="200"><defs><style type="text/css"></style></defs><path d="M512.893 66.431q91.765 0 172.824 34.667t141.725 95.333 95.333 141.725 34.667 172.824-34.667 172.824-95.333 141.725-141.725 95.333-172.824 34.667-173.333-34.667-141.725-95.333-95.333-141.725-35.176-172.824 35.176-172.824 95.333-141.725 141.725-95.333 173.333-34.667zM707.638 574.196q29.569 0 49.451-18.353t19.882-46.902q0-29.569-19.882-45.882t-49.451-16.314h-390.51q-29.569 0-49.451 16.314t-19.882 45.882q0 28.549 19.882 46.902t49.451 18.353h390.51z" p-id="3167"></path></svg>