<?xml version="1.0" standalone="no"?><!DOCTYPE svg PUBLIC "-//W3C//DTD SVG 1.1//EN" "http://www.w3.org/Graphics/SVG/1.1/DTD/svg11.dtd"><svg t="1512700017512" class="icon" style="" viewBox="0 0 1024 1024" version="1.1" xmlns="http://www.w3.org/2000/svg" p-id="25974" xmlns:xlink="http://www.w3.org/1999/xlink" width="200" height="200"><defs><style type="text/css"></style></defs><path d="M140.14 484.685c0 0-17.221 45.039 31.792 67.561 11.778 5.411 41.231 15.184 79.178 26.909-2.852 37.222-12.769 137.689-39.437 188.358-33.119 62.923-68.884 117.899-95.379 127.171 0 0-39.065-85.443-110.937-80.807l-0.002 377.651c0 0 104.652-2.761 123.36-126.62h134.621l3.974-127.171-130.977-1.325c0 0 44.871-37.092 74.678-78.82s81.047-172.158 86.889-264.253c0 0 0 0 0 0 28.886 8.622 60.005 17.702 90.607 26.525l-118.546 332.445 78.158 31.792 117.678-342.167c62.658 17.743 110.171 30.86 110.171 30.86l11.482 4.416 14.13 6.403 8.831 0.001 89.418-151.241-531.869-156.316-27.819 108.625z" p-id="25975"></path><path d="M1006.797 403.489l-748.937-219.047c-39.81-11.644-81.521 11.19-93.165 50.998l-26.425 90.351 629.782 177.44-59.613 108.626c0 0 0 7.949 9.273 10.597s174.53 61.161 174.53 61.161l68.775-187.447-74.183-1.325 131.587-72.417c-0.001-0.001 2.799-11.821-11.628-18.937z" p-id="25976"></path></svg>