<?xml version="1.0" standalone="no"?><!DOCTYPE svg PUBLIC "-//W3C//DTD SVG 1.1//EN" "http://www.w3.org/Graphics/SVG/1.1/DTD/svg11.dtd"><svg t="1512700675442" class="icon" style="" viewBox="0 0 1024 1024" version="1.1" xmlns="http://www.w3.org/2000/svg" p-id="26099" xmlns:xlink="http://www.w3.org/1999/xlink" width="200" height="200"><defs><style type="text/css"></style></defs><path d="M775.458 679.13c-68.736 63.776-162.762 103.2-266.34 103.2-103.594 0-197.654-39.458-266.356-103.2L180.12 824.346l-0.77 1.988c-5.686 16.67-2.656 33.822 8.526 48.41 17.786 23.132 55.708 38.092 96.642 38.092h449.184c34.994 0 79.13-12.544 98.918-40.552 10.532-14.848 12.45-31.896 5.48-47.938l-62.642-145.216z" p-id="26100"></path><path d="M269.314 640.286a0.204 0.204 0 0 1 0.12 0.086 353.856 353.856 0 0 0 11.454 10.73c0.034 0 0.104 0.07 0.136 0.126a332.72 332.72 0 0 0 12.052 10.236 0.482 0.482 0 0 1 0.138 0.132 337.94 337.94 0 0 0 12.498 9.592 1.854 1.854 0 0 0 0.308 0.208 304.126 304.126 0 0 0 12.774 8.9c0.17 0.118 0.34 0.222 0.496 0.324a320.028 320.028 0 0 0 12.994 8.15c0.258 0.152 0.514 0.328 0.806 0.496 4.28 2.5 8.628 4.964 13.01 7.292 0.446 0.218 0.84 0.464 1.268 0.704a316.01 316.01 0 0 0 12.976 6.47c0.566 0.29 1.13 0.578 1.73 0.824 4.212 2.02 8.49 3.852 12.822 5.664 0.754 0.344 1.49 0.668 2.26 0.976a302.14 302.14 0 0 0 12.584 4.842c0.992 0.348 1.918 0.738 2.91 1.062 4.056 1.458 8.166 2.778 12.31 4.062 1.182 0.372 2.312 0.816 3.494 1.144 3.99 1.196 8.012 2.274 12.052 3.338 1.37 0.34 2.704 0.754 4.09 1.094 3.87 0.976 7.824 1.832 11.796 2.656 1.542 0.34 3.064 0.704 4.606 1.008 3.834 0.754 7.704 1.422 11.59 2 1.712 0.296 3.39 0.652 5.102 0.894 3.834 0.562 7.738 1.028 11.59 1.438 1.796 0.208 3.562 0.446 5.34 0.632 4.008 0.394 8.064 0.636 12.124 0.89 1.696 0.132 3.338 0.274 5.05 0.414 5.734 0.218 11.506 0.386 17.324 0.386 5.822 0 11.59-0.168 17.346-0.386 1.66-0.14 3.336-0.282 4.98-0.414 4.076-0.254 8.116-0.496 12.17-0.89 1.816-0.188 3.632-0.442 5.448-0.632 3.852-0.446 7.684-0.876 11.486-1.438 1.73-0.242 3.442-0.598 5.172-0.894 3.868-0.61 7.706-1.246 11.504-2 1.592-0.304 3.1-0.684 4.692-1.008 3.938-0.824 7.856-1.71 11.742-2.656 1.372-0.36 2.74-0.754 4.114-1.126 4.054-1.048 8.078-2.112 12.034-3.306 1.162-0.328 2.326-0.774 3.51-1.144a323.734 323.734 0 0 0 12.292-4.062c0.994-0.34 1.952-0.714 2.892-1.062a316.62 316.62 0 0 0 12.6-4.862c0.772-0.308 1.542-0.648 2.314-0.992a324.078 324.078 0 0 0 12.806-5.628c0.596-0.296 1.18-0.566 1.76-0.89 4.366-2.04 8.7-4.178 12.928-6.458 0.446-0.208 0.856-0.446 1.268-0.7 4.396-2.292 8.764-4.774 13.01-7.258 0.276-0.188 0.546-0.344 0.822-0.516a290.394 290.394 0 0 0 13.012-8.202c0.154-0.066 0.29-0.122 0.428-0.27a307.582 307.582 0 0 0 12.89-8.944 0.616 0.616 0 0 1 0.172-0.132c78.856-57.716 129.754-148.106 129.754-249.616 0-173.958-149.458-315.506-333.142-315.506-183.716 0-333.16 141.548-333.16 315.506-0.004 84.832 35.608 161.912 93.352 218.716z m-33.64-218.714c0-142.766 122.666-258.942 273.442-258.942S782.56 278.806 782.56 421.572c0 75.416-34.256 143.418-88.802 190.754a256.93 256.93 0 0 1-18.282 14.568c-0.362 0.242-0.706 0.532-1.062 0.77a255.89 255.89 0 0 1-18.968 12.466c-0.6 0.376-1.214 0.788-1.814 1.13a264.886 264.886 0 0 1-19.654 10.528c-0.806 0.426-1.626 0.836-2.416 1.216-6.642 3.184-13.44 6.058-20.422 8.746-0.89 0.36-1.832 0.668-2.776 1.028a272.48 272.48 0 0 1-21.23 6.932c-0.942 0.258-1.914 0.516-2.872 0.778-7.28 1.964-14.71 3.692-22.226 5.132-0.856 0.132-1.726 0.254-2.564 0.426a284.884 284.884 0 0 1-23.474 3.202c-0.58 0.05-1.164 0.09-1.746 0.106-8.288 0.734-16.64 1.164-25.132 1.164-8.49 0-16.864-0.43-25.148-1.164a28.072 28.072 0 0 1-1.712-0.106 276.282 276.282 0 0 1-23.454-3.182c-0.856-0.192-1.73-0.312-2.57-0.446a316.22 316.22 0 0 1-22.24-5.122c-0.942-0.254-1.9-0.496-2.858-0.79-7.208-2.016-14.296-4.364-21.23-6.896-0.942-0.364-1.866-0.684-2.772-1.042a279.08 279.08 0 0 1-20.408-8.746c-0.804-0.366-1.608-0.792-2.416-1.186a301.908 301.908 0 0 1-19.654-10.512c-0.598-0.376-1.182-0.77-1.78-1.13-6.54-3.954-12.874-8.046-19.004-12.498-0.326-0.222-0.634-0.476-0.976-0.684-6.316-4.656-12.46-9.464-18.35-14.572-54.584-47.386-88.874-115.386-88.874-190.87z" p-id="26101"></path><path d="M509.118 609.658c68.534 0 124.258-52.8 124.258-117.704 0-64.886-55.724-117.666-124.258-117.666-68.532 0-124.308 52.78-124.308 117.666-0.002 64.904 55.776 117.704 124.308 117.704z m0-201.454c48.778 0 88.462 37.58 88.462 83.752 0 46.208-39.686 83.732-88.462 83.732s-88.46-37.526-88.46-83.732c0-46.172 39.684-83.752 88.46-83.752z" p-id="26102"></path><path d="M509.118 547.684c25.904 0 46.892-19.894 46.892-44.398 0-24.584-20.988-44.44-46.892-44.44-25.902 0-46.926 19.856-46.926 44.44-0.002 24.504 21.022 44.398 46.926 44.398z" p-id="26103"></path></svg>