<?xml version="1.0" standalone="no"?><!DOCTYPE svg PUBLIC "-//W3C//DTD SVG 1.1//EN" "http://www.w3.org/Graphics/SVG/1.1/DTD/svg11.dtd"><svg t="1527592729664" class="icon" style="" viewBox="0 0 1024 1024" version="1.1" xmlns="http://www.w3.org/2000/svg" p-id="2688" xmlns:xlink="http://www.w3.org/1999/xlink" width="200" height="200"><defs><style type="text/css"></style></defs><path d="M512 1.822508C230.685963 1.822508 1.827625 230.67573 1.827625 511.99386c0 281.319154 228.858338 510.182608 510.172375 510.182608 281.313014 0 510.171352-228.863455 510.171352-510.182608C1022.171352 230.67573 793.314037 1.822508 512 1.822508L512 1.822508zM512 943.53641C274.03833 943.53641 80.453357 749.94632 80.453357 511.99386c0-237.960647 193.584973-431.54562 431.547667-431.54562 237.945297 0 431.53641 193.584973 431.53641 431.54562C943.53641 749.94632 749.940181 943.53641 512 943.53641L512 943.53641zM745.187947 395.263275c0 56.026014-16.359596 100.387361-49.019437 133.065622-32.719192 32.704866-78.221526 49.004087-136.542816 49.004087l-101.533464 0 0 234.589876L377.563148 811.92286 377.563148 213.199707l182.068685 0c58.32129 0 103.823624 16.363689 136.537699 49.01739 32.663934 32.704866 49.022507 77.034491 49.022507 133.045155L745.187947 395.262252zM664.667052 395.263275c0-44.305065-10.518564-74.66963-31.517831-91.028203-20.99722-16.300244-52.524261-24.49488-94.53098-24.49488l-80.524988 0 0 231.068679 80.524988 0c42.006719 0 73.532737-8.149611 94.53098-24.51023C654.148487 469.993281 664.667052 439.637925 664.667052 395.263275L664.667052 395.263275zM664.667052 395.263275" p-id="2689"></path></svg>