<?xml version="1.0" standalone="no"?><!DOCTYPE svg PUBLIC "-//W3C//DTD SVG 1.1//EN" "http://www.w3.org/Graphics/SVG/1.1/DTD/svg11.dtd"><svg t="1515639289819" class="icon" style="" viewBox="0 0 1024 1024" version="1.1" xmlns="http://www.w3.org/2000/svg" p-id="1958" xmlns:xlink="http://www.w3.org/1999/xlink" width="200" height="200"><defs><style type="text/css"></style></defs><path d="M224.512 546.7392c-32.9984 0-59.9296-26.9312-59.9296-59.9296 0-19.0976-15.6416-34.7392-34.7392-34.7392-19.0976 0-34.7392 15.6416-34.7392 34.7392 0 71.4496 58.1888 129.408 129.408 129.408 71.4496 0 129.408-58.1888 129.408-129.408 0-37.3504-15.8464-71.0144-41.2672-94.6688 25.3952-23.68 41.2672-57.3184 41.2672-94.6688 0-71.4496-58.1888-129.408-129.408-129.408-71.4496 0-129.408 58.1888-129.408 129.408 0 19.0976 15.6416 34.7392 34.7392 34.7392 19.0976 0 34.7392-15.6416 34.7392-34.7392 0-32.9984 26.9312-59.9296 59.9296-59.9296s59.9296 26.9312 59.9296 59.9296c0 32.9984-26.9312 59.9296-59.9296 59.9296-19.0976 0-34.7392 15.6416-34.7392 34.7392 0 19.0976 15.6416 34.7392 34.7392 34.7392 32.9984 0 59.9296 26.9312 59.9296 59.9296C284.6464 519.808 257.7152 546.7392 224.512 546.7392L224.512 546.7392z" p-id="1959"></path><path d="M641.408 469.4528c0-71.4496-58.1888-129.408-129.408-129.408-21.7088 0-42.1376 5.4272-59.9296 14.7712l0-57.5488c0-32.9984 26.9312-59.9296 59.9296-59.9296s59.9296 26.9312 59.9296 59.9296c0 19.0976 15.6416 34.7392 34.7392 34.7392 19.0976 0 34.7392-15.6416 34.7392-34.7392 0-71.4496-58.1888-129.408-129.408-129.408s-129.408 58.1888-129.408 129.408l0 189.568c0 71.4496 58.1888 129.408 129.408 129.408s129.408-58.1888 129.408-129.408L641.408 469.4528 641.408 469.4528zM571.9296 486.8096c0 32.9984-26.9312 59.9296-59.9296 59.9296s-59.9296-26.9312-59.9296-59.9296l0-17.3824c0-32.9984 26.9312-59.9296 59.9296-59.9296s59.9296 26.9312 59.9296 59.9296L571.9296 486.8096 571.9296 486.8096z" p-id="1960"></path><path d="M799.488 616.2176c71.4496 0 129.408-58.1888 129.408-129.408l0-189.568c0-71.4496-58.1888-129.408-129.408-129.408s-129.408 58.1888-129.408 129.408l0 189.568C669.8752 558.0288 728.064 616.2176 799.488 616.2176L799.488 616.2176zM739.3536 297.2416c0-32.9984 26.9312-59.9296 59.9296-59.9296 32.9984 0 59.9296 26.9312 59.9296 59.9296l0 189.568c0 32.9984-26.9312 59.9296-59.9296 59.9296-32.9984 0-59.9296-26.9312-59.9296-59.9296L739.3536 297.2416 739.3536 297.2416z" p-id="1961"></path><path d="M420.1472 760.192c-6.7328-6.7328-17.8176-6.7328-24.5248 0-6.7328 6.7328-6.7328 17.8176 0 24.5248l73.8304 73.8304c-109.6448-4.1216-211.072-23.8848-287.7184-56.2432-77.312-32.3584-121.3952-74.9056-121.3952-116.608 0-20.1984 9.984-40.3968 29.5424-59.9296 6.7328-6.7328 6.7328-17.8176 0-24.5248-6.7328-6.7328-17.8176-6.7328-24.5248 0C39.0656 627.5328 25.6 655.9744 25.6 685.7216c0 57.3184 50.5856 110.08 142.2336 148.736 81.2032 34.304 188.0576 54.9376 302.9248 59.0592l-75.3408 75.3408c-6.7328 6.7328-6.7328 17.8176 0 24.5248C398.8736 996.8896 403.2 998.4 407.7824 998.4c4.5568 0 8.9088-1.7408 12.3648-4.992l104.2176-104.2176c6.7328-6.7328 6.7328-17.8176 0-24.5248L420.1472 760.192 420.1472 760.192z" p-id="1962"></path><path d="M933.9136 601.2416c-6.7328 6.7328-6.7328 17.8176 0 24.5248 19.7632 19.5328 29.5424 39.7312 29.5424 59.9296 0 76.0064-139.6224 146.3552-332.0064 167.424-9.5488 1.0752-16.512 9.5488-15.4112 19.0976 0.8704 8.9088 8.4736 15.4112 17.152 15.4112 0.64 0 1.3056 0 1.9456 0 217.1392-23.68 362.8544-104.8832 362.8544-201.9328 0-29.7472-13.4656-58.1888-39.9616-84.48C951.7056 594.304 940.8512 594.5088 933.9136 601.2416L933.9136 601.2416z" p-id="1963"></path><path d="M928.9216 164.5824C967.1424 164.5824 998.4 133.2992 998.4 95.0784 998.4 56.8576 967.1424 25.6 928.9216 25.6c-38.2208 0-69.4784 31.2576-69.4784 69.4784C859.4176 133.2992 890.7008 164.5824 928.9216 164.5824L928.9216 164.5824zM928.9216 60.3392c19.0976 0 34.7392 15.6416 34.7392 34.7392 0 19.0976-15.6416 34.7392-34.7392 34.7392s-34.7392-15.6416-34.7392-34.7392C894.1824 75.9808 909.7984 60.3392 928.9216 60.3392L928.9216 60.3392z" p-id="1964"></path></svg>