<?xml version="1.0" standalone="no"?><!DOCTYPE svg PUBLIC "-//W3C//DTD SVG 1.1//EN" "http://www.w3.org/Graphics/SVG/1.1/DTD/svg11.dtd"><svg t="1515550605356" class="icon" style="" viewBox="0 0 1024 1024" version="1.1" xmlns="http://www.w3.org/2000/svg" p-id="3372" xmlns:xlink="http://www.w3.org/1999/xlink" width="200" height="200"><defs><style type="text/css"></style></defs><path d="M512 1024C229.239467 1024 0 794.760533 0 512S229.239467 0 512 0 1024 229.239467 1024 512 794.760533 1024 512 1024z m-78.210844-614.149689v-39.571911h-59.209956v-105.472h-41.073778v105.472h-68.790044v39.571911h68.790044v130.184533c-25.235911 6.212267-50.494578 12.0832-75.730489 17.567289l2.6624 45.602134a4509.468444 4509.468444 0 0 1 73.068089-19.774578v145.567289c0 16.475022-8.533333 24.735289-25.6 24.735289-10.6496 0-25.053867-0.750933-43.190044-2.207289 3.185778 14.654578 5.506844 29.673244 6.940444 45.056 20.252444 0.364089 36.795733 0.159289 49.584356-0.568889 35.566933-1.456356 53.339022-21.777067 53.339022-60.962133v-162.6112c20.2752-5.12 40.163556-10.24 59.733333-15.382756 0.364089-10.990933 0.887467-25.622756 1.592889-43.940978-20.616533 5.870933-41.051022 11.355022-61.326222 16.475022v-119.739733h59.209956z m326.929066-108.771555H458.319644v360.356977h41.051023v-32.9728h89.611377v176.355556h41.051023v-176.355556h89.611377v32.9728h41.073778V301.078756z m-130.685155 183.478044h89.611377v104.356978h-89.611377v-104.356978z m0-143.928889h89.611377v104.379733h-89.611377v-104.379733z m-130.6624 143.928889h89.611377v104.356978h-89.611377v-104.356978z m0-143.928889h89.611377v104.379733h-89.611377v-104.379733z" fill="#EA8010" p-id="3373"></path></svg>