<?xml version="1.0" standalone="no"?><!DOCTYPE svg PUBLIC "-//W3C//DTD SVG 1.1//EN" "http://www.w3.org/Graphics/SVG/1.1/DTD/svg11.dtd"><svg t="1525864045360" class="icon" style="" viewBox="0 0 1024 1024" version="1.1" xmlns="http://www.w3.org/2000/svg" p-id="6977" xmlns:xlink="http://www.w3.org/1999/xlink" width="200" height="200"><defs><style type="text/css"></style></defs><path d="M358.4 900.654545v-134.981818H232.727273v134.981818H132.654545v-134.981818H0v-58.181818h132.654545V390.981818H0v-58.181818h132.654545V195.490909l51.2-72.145454L232.727273 195.490909v134.981818h123.345454V195.490909l51.2-72.145454 51.2 72.145454v134.981818H581.818182V195.490909l51.2-72.145454 51.2 72.145454v137.309091h123.345454V195.490909l51.2-72.145454 51.2 72.145454v137.309091H1024v58.181818h-114.036364v318.836364H1024V768h-114.036364v134.981818h-102.4V768h-123.345454v134.981818H581.818182V768h-123.345455v134.981818h-100.072727z m500.363636-197.818181c-16.290909 0-30.254545 13.963636-30.254545 30.254545 0 16.290909 13.963636 30.254545 30.254545 30.254546 16.290909 0 30.254545-13.963636 30.254546-30.254546 0-16.290909-13.963636-30.254545-30.254546-30.254545z m-225.745454 0c-16.290909 0-30.254545 13.963636-30.254546 30.254545 0 16.290909 13.963636 30.254545 30.254546 30.254546 16.290909 0 30.254545-13.963636 30.254545-30.254546 2.327273-16.290909-11.636364-30.254545-30.254545-30.254545z m-225.745455 0c-16.290909 0-30.254545 13.963636-30.254545 30.254545 0 16.290909 13.963636 30.254545 30.254545 30.254546 16.290909 0 30.254545-13.963636 30.254546-30.254546 2.327273-16.290909-11.636364-30.254545-30.254546-30.254545z m-223.418182 0c-16.290909 0-30.254545 13.963636-30.254545 30.254545 0 16.290909 13.963636 30.254545 30.254545 30.254546 16.290909 0 30.254545-13.963636 30.254546-30.254546 0-16.290909-13.963636-30.254545-30.254546-30.254545z m500.363637 4.654545h123.345454V390.981818h-123.345454v316.509091z m-225.745455 0H581.818182V390.981818h-123.345455v316.509091z m-225.745454 0h123.345454V390.981818H232.727273v316.509091z m626.036363-379.345454c-16.290909 0-30.254545 13.963636-30.254545 30.254545 0 16.290909 13.963636 30.254545 30.254545 30.254545 16.290909 0 30.254545-13.963636 30.254546-30.254545 0-16.290909-13.963636-30.254545-30.254546-30.254545z m-225.745454 0c-16.290909 0-30.254545 13.963636-30.254546 30.254545 0 16.290909 13.963636 30.254545 30.254546 30.254545 16.290909 0 30.254545-13.963636 30.254545-30.254545 2.327273-16.290909-11.636364-30.254545-30.254545-30.254545z m-225.745455 0c-16.290909 0-30.254545 13.963636-30.254545 30.254545 0 16.290909 13.963636 30.254545 30.254545 30.254545 16.290909 0 30.254545-13.963636 30.254546-30.254545 2.327273-16.290909-11.636364-30.254545-30.254546-30.254545z m-223.418182 0c-16.290909 0-30.254545 13.963636-30.254545 30.254545 0 16.290909 13.963636 30.254545 30.254545 30.254545 16.290909 0 30.254545-13.963636 30.254546-30.254545 0-16.290909-13.963636-30.254545-30.254546-30.254545z" p-id="6978"></path></svg>