<?xml version="1.0" standalone="no"?><!DOCTYPE svg PUBLIC "-//W3C//DTD SVG 1.1//EN" "http://www.w3.org/Graphics/SVG/1.1/DTD/svg11.dtd"><svg t="1515401914744" class="icon" style="" viewBox="0 0 1024 1024" version="1.1" xmlns="http://www.w3.org/2000/svg" p-id="3165" xmlns:xlink="http://www.w3.org/1999/xlink" width="200" height="200"><defs><style type="text/css"></style></defs><path d="M869.885993 287.634999 646.077671 63.892169 77.737502 632.298853l223.808322 223.74283L869.885993 287.634999zM617.217367 148.69867 757.097184 288.539602l-28.412097 28.418236L588.80527 177.12407 617.217367 148.69867zM531.968797 233.960543l83.928504 83.901899-28.418236 28.4254-83.928504-83.901899L531.968797 233.960543zM446.714088 319.222415l83.928504 83.901899-28.412097 28.4254-83.928504-83.901899L446.714088 319.222415zM361.465518 404.483264l83.928504 83.901899-28.418236 28.4254-83.928504-83.908038L361.465518 404.483264zM276.216949 489.745137l83.928504 83.901899-28.418236 28.4254-83.928504-83.901899L276.216949 489.745137zM190.968379 575.007009 330.84922 714.846918l-28.418236 28.418236L162.550143 603.425246 190.968379 575.007009zM110.744243 988.06558 869.885993 988.06558l0-66.01246L110.744243 922.05312 110.744243 988.06558z" p-id="3166"></path></svg>