<?xml version="1.0" standalone="no"?><!DOCTYPE svg PUBLIC "-//W3C//DTD SVG 1.1//EN" "http://www.w3.org/Graphics/SVG/1.1/DTD/svg11.dtd"><svg t="1513925389729" class="icon" style="" viewBox="0 0 1024 1024" version="1.1" xmlns="http://www.w3.org/2000/svg" p-id="8266" xmlns:xlink="http://www.w3.org/1999/xlink" width="200" height="200"><defs><style type="text/css"></style></defs><path d="M169.975764 720.665437l-60.441581 0c-25.195845 0-45.690622 20.482497-45.690622 45.677319l0 148.112316c0 25.195845 20.494777 45.703925 45.690622 45.703925l60.441581 0c25.195845 0 45.690622-20.50808 45.690622-45.703925L215.666386 766.342756C215.667409 741.147934 195.172633 720.665437 169.975764 720.665437zM187.925578 914.455071c0 9.914814-8.046257 17.962094-17.948791 17.962094l-60.441581 0c-9.902534 0-17.948791-8.046257-17.948791-17.962094L91.586416 766.342756c0-9.888208 8.046257-17.934464 17.948791-17.934464l60.441581 0c9.902534 0 17.948791 8.046257 17.948791 17.934464L187.925578 914.455071zM418.138774 527.0733l-60.455907 0c-25.181519 0-45.677319 20.494777-45.677319 45.690622l0 341.691149c0 25.195845 20.494777 45.703925 45.677319 45.703925l60.455907 0c25.195845 0 45.690622-20.50808 45.690622-45.703925L463.829396 572.763922C463.830419 547.568077 443.334619 527.0733 418.138774 527.0733zM436.087565 914.455071c0 9.914814-8.046257 17.962094-17.948791 17.962094l-60.455907 0c-9.888208 0-17.934464-8.046257-17.934464-17.962094L339.748403 572.763922c0-9.902534 8.046257-17.962094 17.934464-17.962094l60.455907 0c9.902534 0 17.948791 8.05956 17.948791 17.962094L436.087565 914.455071zM666.301783 334.842161l-60.455907 0c-25.181519 0-45.677319 20.494777-45.677319 45.703925l0 533.908986c0 25.195845 20.494777 45.703925 45.677319 45.703925l60.455907 0c25.195845 0 45.690622-20.50808 45.690622-45.703925L711.992405 380.546086C711.992405 355.336938 691.497629 334.842161 666.301783 334.842161zM684.250574 914.455071c0 9.914814-8.046257 17.962094-17.948791 17.962094l-60.455907 0c-9.888208 0-17.934464-8.046257-17.934464-17.962094L587.911412 380.546086c0-9.902534 8.046257-17.948791 17.934464-17.948791l60.455907 0c9.902534 0 17.948791 8.046257 17.948791 17.948791L684.250574 914.455071zM914.465816 63.83998l-60.455907 0c-25.181519 0-45.678342 20.494777-45.678342 45.690622l0 804.924469c0 25.195845 20.4958 45.703925 45.678342 45.703925l60.455907 0c25.194822 0 45.689598-20.50808 45.689598-45.703925L960.155415 109.530602C960.155415 84.334757 939.660638 63.83998 914.465816 63.83998zM932.413584 914.455071c0 9.914814-8.046257 17.962094-17.947767 17.962094l-60.455907 0c-9.889231 0-17.934464-8.046257-17.934464-17.962094L836.075445 109.530602c0-9.902534 8.045233-17.948791 17.934464-17.948791l60.455907 0c9.901511 0 17.947767 8.046257 17.947767 17.948791L932.413584 914.455071z" p-id="8267"></path></svg>