<?xml version="1.0" standalone="no"?><!DOCTYPE svg PUBLIC "-//W3C//DTD SVG 1.1//EN" "http://www.w3.org/Graphics/SVG/1.1/DTD/svg11.dtd"><svg t="1513925355470" class="icon" style="" viewBox="0 0 1024 1024" version="1.1" xmlns="http://www.w3.org/2000/svg" p-id="7432" xmlns:xlink="http://www.w3.org/1999/xlink" width="200" height="200"><defs><style type="text/css"></style></defs><path d="M169.94 720.592l-60.4 0c-25.2 0-45.7 20.5-45.7 45.7l0 148.1c0 25.2 20.5 45.7 45.7 45.7l60.4 0c25.2 0 45.7-20.5 45.7-45.7l0-148.1C215.64 741.092 195.14 720.592 169.94 720.592zM418.14 526.992 357.64 526.992c-25.2 0-45.7 20.5-45.7 45.7l0 341.7c0 25.2 20.5 45.7 45.7 45.7l60.5 0c25.2 0 45.7-20.5 45.7-45.7l0-341.7C463.84 547.492 443.34 526.992 418.14 526.992zM666.34 334.792l-60.5 0c-25.2 0-45.7 20.5-45.7 45.7l0 533.9c0 25.2 20.5 45.7 45.7 45.7l60.5 0c25.2 0 45.7-20.5 45.7-45.7l0-533.9C712.04 355.292 691.54 334.792 666.34 334.792zM914.44 63.792l-60.5 0c-25.2 0-45.7 20.5-45.7 45.7l0 804.9c0 25.2 20.5 45.7 45.7 45.7l60.5 0c25.2 0 45.7-20.5 45.7-45.7l0-804.9C960.14 84.292 939.64 63.792 914.44 63.792z" p-id="7433"></path></svg>