<?xml version="1.0" standalone="no"?><!DOCTYPE svg PUBLIC "-//W3C//DTD SVG 1.1//EN" "http://www.w3.org/Graphics/SVG/1.1/DTD/svg11.dtd"><svg t="1512646420126" class="icon" style="" viewBox="0 0 1024 1024" version="1.1" xmlns="http://www.w3.org/2000/svg" p-id="22525" xmlns:xlink="http://www.w3.org/1999/xlink" width="200" height="200"><defs><style type="text/css"></style></defs><path d="M890.482589 334.546426c9.137101 13.427824 18.278295 26.858718 27.41642 40.286542 0.37146 0.186242 0.74599 0.373507 1.119497 0.559748 10.815323-17.344017 21.636786-34.694173 32.453133-52.03819 16.84362-25.233708 35.353183-45.133943 45.323255-78.336136 19.323091-64.337307-26.545586-111.901603-87.290065-110.790292-4.288676 0.744967-8.580422 1.49198-12.868075 2.237971-14.597463 4.312212-29.502941 13.44522-38.050618 24.060999-6.982018 8.67252-13.999852 17.986653-18.46556 29.096688-11.409864 28.390607-2.609431 61.255109 9.511631 81.133855C863.246271 292.018843 876.865453 313.286216 890.482589 334.546426zM877.61042 208.648041c6.0416-19.393699 18.977213-23.330358 37.490869-30.773887 58.159608-0.851391 59.211567 81.431637 5.595438 89.527013C893.303844 271.53737 868.838639 236.817614 877.61042 208.648041z" p-id="22526"></path><path d="M271.059997 678.669974c33.809013-47.322795 65.783239-84.615143 85.61082-147.721413 44.354184-141.166113-45.51666-256.95628-183.532013-254.593466-10.786671 4.223185-26.754341 2.839675-37.489846 6.155187-32.178887 9.93528-62.786998 29.057803-81.693604 52.597939-16.511046 20.557198-31.454386 40.730657-41.966811 67.705008-24.609491 63.145156-6.612605 129.84016 20.703531 174.579107 31.665187 51.863205 63.824631 102.478999 98.480942 151.637606 18.277272 27.042913 36.558637 54.094012 54.835909 81.134879 0.559748 0.373507 1.119497 0.74599 1.679245 1.12052 11.376095-18.464537 22.756283-36.934191 34.132378-55.396681C238.127957 729.708394 253.367033 703.435007 271.059997 678.669974zM95.922165 441.980273c9.04091-29.040407 30.474059-51.687196 57.631582-62.669318 8.584516-3.471055 18.958794-2.50096 28.537963-6.155187 63.831794-0.364297 117.865431 64.424288 91.206258 133.172045-13.202697 34.041304-38.560224 57.8168-79.456656 64.348564C131.354142 580.658729 76.433298 504.575914 95.922165 441.980273z" p-id="22527"></path><path d="M938.603563 631.66645c-46.813189-30.585599-93.637634-61.181431-140.447752-91.76703-16.039301-11.003612-32.082696-22.010293-48.119951-33.011858-31.705096-17.342993-63.418378-34.694173-95.123474-52.03819-17.013489-9.939373-36.926004-18.278295-50.359968-31.894408-0.372483-0.185218-0.74599-0.37146-1.119497-0.558725 63.389726-13.145391 129.403209-13.95892 195.84341-25.179472 34.129308-3.918239 68.267826-7.834432 102.397135-11.750625 0-0.186242 0-0.373507 0-0.559748-5.219885-7.106862-20.117177-27.188222-27.418466-30.774911-8.578376 0.74599-17.161868 1.49198-25.737174 2.238994-30.960129 1.863441-61.928445 3.730974-92.886527 5.595438-24.139793 3.752464-48.880267 0.514723-74.420967 4.474918-71.801303 6.52767-143.625118 13.057387-215.425398 19.584034 32.450063 24.990161 64.909335 49.988508 97.360422 74.978668 34.792411 23.229051 72.118528 41.521672 105.754602 65.468061 42.894949 33.382295 85.801155 66.775846 128.696104 100.160187 0.372483 0.557702 0.74599 1.118474 1.12052 1.678222-103.320157 6.52767-206.672036 13.056364-309.992193 19.584034-20.887726 0.932232-41.782615 1.866511-62.669318 2.798742-25.461905 3.958148-49.093115 4.994758-72.741721 9.512654-11.376095 1.678222-22.756283 3.355421-34.132378 5.034666-33.754778 56.882522-67.521836 113.781416-101.277638 170.661891-0.372483 0.559748-0.74599 1.119497-1.118474 1.679245 114.691135-25.289989 233.224786-44.26618 349.717963-69.944002 63.037708-11.18883 126.090766-22.3838 189.127452-33.574676 89.331561-15.292288 178.692798-30.588669 268.023336-45.88198 0-0.186242 0-0.37146 0-0.558725C995.304959 668.971078 966.949144 650.316206 938.603563 631.66645z" p-id="22528"></path></svg>